# Blender v2.80 (sub 75) OBJ File: 'bent_pipe.blend'
# www.blender.org
o Cube.001
v -5.999997 1.500000 -1.500003
v -5.999999 1.500001 1.499995
v -6.000001 -1.500000 -1.500002
v -5.999993 -1.499999 1.499996
v -4.994745 1.050748 -1.050751
v -4.994747 1.050748 1.050744
v -4.994749 -1.050748 -1.050750
v -4.994739 -1.050748 1.050745
v 1.500003 1.499999 -5.999996
v -1.499996 1.500000 -5.999998
v 1.500002 -1.500001 -6.000000
v -1.499997 -1.500000 -5.999993
v 1.050751 1.050747 -4.994744
v -1.050744 1.050748 -4.994747
v 1.050750 -1.050748 -4.994749
v -1.050747 -1.050748 -4.994739
v -1.050753 -1.050748 -1.050748
v -1.050751 -1.050748 1.050747
v -1.050751 1.050750 1.050747
v -1.050750 1.050750 -1.050751
v 1.050750 1.050750 1.050751
v 1.050749 -1.050750 1.050751
vt 0.013384 0.038541
vt 0.271040 0.296625
vt 0.013384 0.296625
vt 0.257510 0.654874
vt 0.566796 0.530047
vt 0.621270 0.654874
vt 0.970696 0.042205
vt 0.660367 0.168254
vt 0.605710 0.042205
vt 0.209125 0.465306
vt 0.008702 0.383758
vt 0.246261 0.384214
vt 0.602597 0.978797
vt 0.521434 0.778217
vt 0.602597 0.741238
vt 0.042716 0.464987
vt 0.209124 0.777617
vt 0.042715 0.777297
vt 0.566795 0.052619
vt 0.311983 0.530047
vt 0.311982 0.052620
vt 0.209124 0.944027
vt 0.209124 0.777617
vt 0.271040 0.296625
vt 0.013384 0.038540
vt 0.271040 0.038540
vt 0.970697 0.042205
vt 0.660367 0.168253
vt 0.605710 0.042205
vt 0.257510 0.654874
vt 0.566796 0.530048
vt 0.621270 0.654874
vt 0.521435 0.944628
vt 0.602598 0.741239
vt 0.602598 0.978799
vt 0.008700 0.383758
vt 0.209124 0.465306
vt 0.042714 0.464986
vt 0.916040 0.168254
vt 0.660368 0.901698
vt 0.660368 0.646743
vt 0.916040 0.646742
vt 0.042714 0.943708
vt 0.042714 0.943708
vt 0.311983 0.530047
vt 0.566796 0.052620
vt 0.271040 0.038540
vt 0.916039 0.168254
vt 0.521434 0.944627
vt 0.013384 0.296625
vt 0.521434 0.778218
vt 0.246259 0.384214
vt 0.916041 0.901698
vt 0.916041 0.901698
vt 0.660368 0.901699
vt 0.311982 0.052620
vn -1.0000 0.0000 -0.0000
vn 0.4080 -0.0000 -0.9130
vn 0.4080 0.0000 0.9130
vn 0.4080 -0.9130 -0.0000
vn 0.4080 0.9130 0.0000
vn -0.0000 -1.0000 0.0000
vn -0.0000 -0.0000 -1.0000
vn -0.0000 1.0000 -0.0000
vn 0.9130 -0.0000 0.4080
vn -0.9130 0.0000 0.4080
vn 0.0000 -0.9130 0.4080
vn -0.0000 0.9130 0.4080
vn 1.0000 -0.0000 0.0000
vn -0.0000 0.0000 1.0000
s off
f 3/1/1 2/2/1 1/3/1
f 1/4/2 7/5/2 3/6/2
f 4/7/3 6/8/3 2/9/3
f 7/10/4 4/11/4 3/12/4
f 2/13/5 5/14/5 1/15/5
f 8/16/6 17/17/6 18/18/6
f 17/19/7 5/20/7 20/21/7
f 5/14/8 19/22/8 20/23/8
f 11/24/7 10/25/7 9/26/7
f 9/27/9 15/28/9 11/29/9
f 12/30/10 14/31/10 10/32/10
f 15/33/11 12/34/11 11/35/11
f 9/36/12 14/37/12 13/38/12
f 13/39/13 22/40/13 15/28/13
f 19/41/14 6/8/14 18/42/14
f 22/43/6 18/18/6 17/17/6
f 20/23/8 19/22/8 21/44/8
f 16/45/1 20/46/1 14/31/1
f 3/1/1 4/47/1 2/2/1
f 1/4/2 5/20/2 7/5/2
f 4/7/3 8/48/3 6/8/3
f 7/10/4 8/16/4 4/11/4
f 2/13/5 6/49/5 5/14/5
f 8/16/6 7/10/6 17/17/6
f 17/19/7 7/5/7 5/20/7
f 5/14/8 6/49/8 19/22/8
f 11/24/7 12/50/7 10/25/7
f 9/27/9 13/39/9 15/28/9
f 12/30/10 16/45/10 14/31/10
f 15/33/11 16/51/11 12/34/11
f 9/36/12 10/52/12 14/37/12
f 13/39/13 21/53/13 22/40/13
f 6/8/14 8/48/14 18/42/14
f 18/42/14 22/54/14 21/55/14
f 21/55/14 19/41/14 18/42/14
f 17/17/6 16/51/6 15/33/6
f 15/33/6 22/43/6 17/17/6
f 21/44/8 13/38/8 20/23/8
f 13/38/8 14/37/8 20/23/8
f 16/45/1 17/56/1 20/46/1
