# Blender v2.80 (sub 75) OBJ File: 'pipe.blend'
# www.blender.org
o Cube
v -1.499999 -1.500000 -5.999998
v 1.499999 -1.500000 -5.999998
v 1.499999 -1.500000 5.999997
v -1.500000 -1.500000 5.999992
v -1.499999 1.500000 -6.000002
v 1.500000 1.500000 -5.999992
v 1.499999 1.500000 5.999999
v -1.499999 1.500000 5.999996
v -1.050747 -1.050748 4.994740
v 1.050748 -1.050748 4.994745
v -1.050747 1.050748 4.994742
v 1.050747 1.050748 4.994748
v -1.050748 -1.050748 -4.994746
v 1.050747 -1.050748 -4.994746
v -1.050747 1.050748 -4.994750
v 1.050748 1.050748 -4.994738
vt 0.061400 0.095255
vt 0.268895 0.013481
vt 0.232350 0.095255
vt 0.024855 0.013481
vt 0.232350 0.095255
vt 0.061400 0.095255
vt 0.270397 0.150085
vt 0.963196 0.842884
vt 0.270397 0.842884
vt 0.061400 0.095255
vt 0.268895 0.013482
vt 0.232350 0.095256
vt 0.270397 0.842883
vt 0.963196 0.150085
vt 0.963196 0.842883
vt 0.232350 0.095256
vt 0.024855 0.013482
vt 0.268895 0.013481
vt 0.024855 0.989644
vt 0.232350 0.907870
vt 0.268895 0.989644
vt 0.024855 0.989644
vt 0.232350 0.907870
vt 0.268896 0.989644
vt 0.061400 0.907870
vt 0.268895 0.989643
vt 0.024855 0.989644
vt 0.024855 0.989644
vt 0.232350 0.907870
vt 0.268895 0.989644
vt 0.232350 0.907869
vt 0.061400 0.907870
vt 0.061400 0.907870
vt 0.061400 0.095256
vt 0.061400 0.907870
vt 0.024855 0.013481
vt 0.268895 0.013481
vt 0.963196 0.150085
vt 0.024855 0.013481
vt 0.270397 0.150085
vn 0.0000 -0.9130 -0.4080
vn 0.0000 0.9130 -0.4080
vn 0.0000 -0.0000 -1.0000
vn 0.9130 0.0000 -0.4080
vn -0.0000 -0.0000 1.0000
vn -0.9130 0.0000 -0.4080
vn -0.9130 0.0000 0.4080
vn 0.9130 -0.0000 0.4080
vn -0.0000 0.9130 0.4080
vn 0.0000 -0.9130 0.4080
vn 0.0000 1.0000 0.0000
vn 1.0000 0.0000 0.0000
vn -1.0000 0.0000 0.0000
vn 0.0000 -1.0000 0.0000
s off
f 10/1/1 4/2/1 9/3/1
f 8/4/2 12/5/2 11/6/2
f 5/7/3 2/8/3 1/9/3
f 12/10/4 3/11/4 10/12/4
f 7/13/5 4/14/5 3/15/5
f 11/16/6 4/17/6 8/18/6
f 1/19/7 15/20/7 5/21/7
f 6/22/8 14/23/8 2/24/8
f 15/25/9 6/26/9 5/27/9
f 2/28/10 13/29/10 1/30/10
f 16/31/11 11/6/11 12/5/11
f 10/12/12 16/32/12 12/10/12
f 11/16/13 13/33/13 9/34/13
f 9/3/14 14/35/14 10/1/14
f 10/1/1 3/36/1 4/2/1
f 8/4/2 7/37/2 12/5/2
f 5/7/3 6/38/3 2/8/3
f 12/10/4 7/39/4 3/11/4
f 7/13/5 8/40/5 4/14/5
f 11/16/6 9/34/6 4/17/6
f 1/19/7 13/33/7 15/20/7
f 6/22/8 16/32/8 14/23/8
f 15/25/9 16/31/9 6/26/9
f 2/28/10 14/35/10 13/29/10
f 16/31/11 15/25/11 11/6/11
f 10/12/12 14/23/12 16/32/12
f 11/16/13 15/20/13 13/33/13
f 9/3/14 13/29/14 14/35/14
