# Blender v2.80 (sub 75) OBJ File: 'pipe.blend'
# www.blender.org
o Cube
v -1.050747 1.050748 2.499997
v 1.050748 1.050748 2.500005
v 1.050747 -1.050748 2.500000
v -1.050748 -1.050748 2.499998
v -1.050747 1.050748 -2.500004
v 1.050748 1.050748 -2.499994
v 1.050747 -1.050748 -2.500000
v -1.050748 -1.050748 -2.500001
vt 0.983955 0.222188
vt 0.437919 0.768224
vt 0.437919 0.222188
vt 0.015416 0.976710
vt 0.414272 0.027728
vt 0.414272 0.976711
vt 0.015415 0.976711
vt 0.414272 0.027729
vt 0.414272 0.976711
vt 0.414272 0.027728
vt 0.015415 0.976710
vt 0.015415 0.027727
vt 0.015415 0.027730
vt 0.414272 0.976711
vt 0.015416 0.976713
vt 0.983956 0.222188
vt 0.437919 0.768224
vt 0.437919 0.222188
vt 0.983955 0.768224
vt 0.015416 0.027728
vt 0.015415 0.027728
vt 0.414272 0.976711
vt 0.414272 0.027728
vt 0.983955 0.768224
vn -0.0000 0.0000 1.0000
vn 0.0000 -1.0000 0.0000
vn -1.0000 0.0000 0.0000
vn 1.0000 -0.0000 0.0000
vn 0.0000 1.0000 -0.0000
vn 0.0000 -0.0000 -1.0000
s off
f 3/1/1 1/2/1 4/3/1
f 4/4/2 7/5/2 3/6/2
f 1/7/3 8/8/3 4/9/3
f 3/10/4 6/11/4 2/12/4
f 6/13/5 1/14/5 2/15/5
f 5/16/6 7/17/6 8/18/6
f 3/1/1 2/19/1 1/2/1
f 4/4/2 8/20/2 7/5/2
f 1/7/3 5/21/3 8/8/3
f 3/10/4 7/22/4 6/11/4
f 6/13/5 5/23/5 1/14/5
f 5/16/6 6/24/6 7/17/6
