# Blender v2.80 (sub 75) OBJ File: 'Scattershock.blend'
# www.blender.org
o Cube
v 1.325078 1.917274 -2.180247
v 2.985927 -1.912640 -2.180247
v 1.325078 1.917274 -0.577811
v 2.985927 -1.912640 -0.577811
v -1.325078 1.917274 -2.180247
v -2.985927 -1.912640 -2.180247
v -1.325078 1.917274 -0.577811
v -2.985927 -1.912640 -0.577811
v -0.000000 1.772596 -3.063004
v -0.000000 1.454218 6.921655
v 0.345364 1.738581 -3.063004
v 0.283252 1.426320 6.921655
v 0.677457 1.637841 -3.063004
v 0.555619 1.343698 6.921655
v 0.983515 1.474250 -3.063004
v 0.806633 1.209528 6.921655
v 1.251777 1.254093 -3.063004
v 1.026649 1.028966 6.921655
v 1.471934 0.985831 -3.063004
v 1.207212 0.808949 6.921655
v 1.635525 0.679773 -3.063004
v 1.341382 0.557935 6.921655
v 1.736265 0.347681 -3.063004
v 1.424004 0.285568 6.921655
v 1.770280 0.002316 -3.063004
v 1.451902 0.002316 6.921655
v 1.736265 -0.343048 -3.063004
v 1.424004 -0.280936 6.921655
v 1.635526 -0.675141 -3.063004
v 1.341382 -0.553303 6.921655
v 1.471934 -0.981199 -3.063004
v 1.207212 -0.804317 6.921655
v 1.251777 -1.249461 -3.063004
v 1.026649 -1.024334 6.921655
v 0.983515 -1.469618 -3.063004
v 0.806633 -1.204896 6.921655
v 0.677457 -1.633210 -3.063004
v 0.555618 -1.339066 6.921655
v 0.345364 -1.733949 -3.063004
v 0.283252 -1.421688 6.921655
v -0.000001 -1.767964 -3.063004
v -0.000000 -1.449586 6.921655
v -0.345365 -1.733948 -3.063004
v -0.283253 -1.421688 6.921655
v -0.677458 -1.633209 -3.063004
v -0.555619 -1.339066 6.921655
v -0.983516 -1.469617 -3.063004
v -0.806634 -1.204896 6.921655
v -1.251778 -1.249460 -3.063004
v -1.026650 -1.024333 6.921655
v -1.471935 -0.981198 -3.063004
v -1.207213 -0.804317 6.921655
v -1.635526 -0.675140 -3.063004
v -1.341383 -0.553302 6.921655
v -1.736265 -0.343047 -3.063004
v -1.424004 -0.280935 6.921655
v -1.770280 0.002318 -3.063004
v -1.451902 0.002317 6.921655
v -1.736264 0.347682 -3.063004
v -1.424003 0.285570 6.921655
v -1.635525 0.679775 -3.063004
v -1.341382 0.557936 6.921655
v -1.471933 0.985833 -3.063004
v -1.207211 0.808951 6.921655
v -1.251776 1.254095 -3.063004
v -1.026648 1.028967 6.921655
v -0.983513 1.474251 -3.063004
v -0.806632 1.209529 6.921655
v -0.677454 1.637843 -3.063004
v -0.555617 1.343699 6.921655
v -0.345362 1.738581 -3.063004
v -0.283250 1.426320 6.921655
v 1.325078 1.917274 -3.440682
v -1.325078 1.917274 -3.440682
v 0.781290 -1.557122 -4.755700
v -0.781290 -1.557122 -4.755700
v -0.781290 0.800883 -5.058247
v 0.781290 0.800883 -5.058247
v 0.781290 0.710381 -5.763607
v -0.781290 0.710381 -5.763607
v -0.781290 -1.507028 -5.025061
v 0.781290 -1.507028 -5.025061
v 0.641535 -2.186273 -7.725920
v 0.641535 -0.365508 -8.332356
v -0.641535 -0.365508 -8.332356
v -0.641535 -2.186273 -7.725920
vt 0.375000 0.000000
vt 0.625000 0.000000
vt 0.625000 0.250000
vt 0.375000 0.250000
vt 0.375000 0.250000
vt 0.625000 0.250000
vt 0.625000 0.500000
vt 0.375000 0.500000
vt 0.625000 0.750000
vt 0.375000 0.750000
vt 0.625000 0.750000
vt 0.625000 1.000000
vt 0.375000 1.000000
vt 0.125000 0.500000
vt 0.375000 0.500000
vt 0.375000 0.750000
vt 0.125000 0.750000
vt 0.375000 0.000000
vt 1.000000 0.500000
vt 1.000000 1.000000
vt 0.968750 1.000000
vt 0.968750 0.500000
vt 0.937500 1.000000
vt 0.937500 0.500000
vt 0.906250 1.000000
vt 0.906250 0.500000
vt 0.875000 1.000000
vt 0.875000 0.500000
vt 0.843750 1.000000
vt 0.843750 0.500000
vt 0.812500 1.000000
vt 0.812500 0.500000
vt 0.781250 1.000000
vt 0.781250 0.500000
vt 0.750000 1.000000
vt 0.750000 0.500000
vt 0.718750 1.000000
vt 0.718750 0.500000
vt 0.687500 1.000000
vt 0.687500 0.500000
vt 0.656250 1.000000
vt 0.656250 0.500000
vt 0.625000 1.000000
vt 0.625000 0.500000
vt 0.593750 1.000000
vt 0.593750 0.500000
vt 0.562500 1.000000
vt 0.562500 0.500000
vt 0.531250 1.000000
vt 0.531250 0.500000
vt 0.500000 1.000000
vt 0.500000 0.500000
vt 0.468750 1.000000
vt 0.468750 0.500000
vt 0.437500 1.000000
vt 0.437500 0.500000
vt 0.406250 1.000000
vt 0.406250 0.500000
vt 0.375000 1.000000
vt 0.375000 0.500000
vt 0.343750 1.000000
vt 0.343750 0.500000
vt 0.312500 1.000000
vt 0.312500 0.500000
vt 0.281250 1.000000
vt 0.281250 0.500000
vt 0.250000 1.000000
vt 0.250000 0.500000
vt 0.218750 1.000000
vt 0.218750 0.500000
vt 0.187500 1.000000
vt 0.187500 0.500000
vt 0.156250 1.000000
vt 0.156250 0.500000
vt 0.125000 1.000000
vt 0.125000 0.500000
vt 0.093750 1.000000
vt 0.093750 0.500000
vt 0.062500 1.000000
vt 0.062500 0.500000
vt 0.296822 0.485388
vt 0.250000 0.490000
vt 0.203179 0.485389
vt 0.158156 0.471731
vt 0.116663 0.449553
vt 0.080295 0.419706
vt 0.050447 0.383337
vt 0.028269 0.341844
vt 0.014612 0.296822
vt 0.010000 0.250000
vt 0.014611 0.203179
vt 0.028269 0.158156
vt 0.050447 0.116663
vt 0.080294 0.080294
vt 0.116663 0.050447
vt 0.158156 0.028269
vt 0.203178 0.014612
vt 0.250000 0.010000
vt 0.296822 0.014612
vt 0.341844 0.028269
vt 0.383337 0.050447
vt 0.419706 0.080294
vt 0.449553 0.116663
vt 0.471731 0.158156
vt 0.485388 0.203178
vt 0.490000 0.250000
vt 0.485388 0.296822
vt 0.471731 0.341844
vt 0.449553 0.383337
vt 0.419706 0.419706
vt 0.383337 0.449553
vt 0.341844 0.471731
vt 0.031250 1.000000
vt 0.031250 0.500000
vt 0.000000 1.000000
vt 0.000000 0.500000
vt 0.750000 0.490000
vt 0.796822 0.485388
vt 0.841844 0.471731
vt 0.883337 0.449553
vt 0.919706 0.419706
vt 0.949553 0.383337
vt 0.971731 0.341844
vt 0.985388 0.296822
vt 0.990000 0.250000
vt 0.985388 0.203178
vt 0.971731 0.158156
vt 0.949553 0.116663
vt 0.919706 0.080294
vt 0.883337 0.050447
vt 0.841844 0.028269
vt 0.796822 0.014612
vt 0.750000 0.010000
vt 0.703178 0.014612
vt 0.658156 0.028269
vt 0.616663 0.050447
vt 0.580294 0.080294
vt 0.550447 0.116663
vt 0.528269 0.158156
vt 0.514611 0.203179
vt 0.510000 0.250000
vt 0.514612 0.296822
vt 0.528269 0.341844
vt 0.550447 0.383337
vt 0.580295 0.419706
vt 0.616663 0.449553
vt 0.658156 0.471731
vt 0.703179 0.485389
vt 0.625000 0.000000
vt 0.625000 0.000000
vt 0.375000 0.750000
vt 0.625000 0.750000
vt 0.125000 0.500000
vt 0.375000 0.000000
vt 0.625000 0.000000
vt 0.375000 0.750000
vt 0.125000 0.500000
vt 0.375000 0.000000
vt 0.625000 0.750000
vt 0.375000 0.750000
vt 0.625000 0.750000
vt 0.375000 0.000000
vt 0.625000 0.000000
vt 0.125000 0.500000
vn 0.0000 1.0000 0.0000
vn 0.0000 0.0000 1.0000
vn -0.9174 0.3979 0.0000
vn 0.0000 -1.0000 0.0000
vn 0.9174 0.3979 0.0000
vn 0.0980 0.9947 0.0317
vn 0.2901 0.9565 0.0317
vn 0.4712 0.8815 0.0317
vn 0.6341 0.7726 0.0317
vn 0.7726 0.6341 0.0317
vn 0.8815 0.4712 0.0317
vn 0.9565 0.2901 0.0317
vn 0.9947 0.0980 0.0317
vn 0.9947 -0.0980 0.0317
vn 0.9565 -0.2901 0.0317
vn 0.8815 -0.4712 0.0317
vn 0.7726 -0.6341 0.0317
vn 0.6341 -0.7726 0.0317
vn 0.4712 -0.8815 0.0317
vn 0.2901 -0.9565 0.0317
vn 0.0980 -0.9947 0.0317
vn -0.0980 -0.9947 0.0317
vn -0.2901 -0.9565 0.0317
vn -0.4712 -0.8815 0.0317
vn -0.6341 -0.7726 0.0317
vn -0.7726 -0.6341 0.0317
vn -0.8815 -0.4712 0.0317
vn -0.9565 -0.2901 0.0317
vn -0.9947 -0.0980 0.0317
vn -0.9947 0.0980 0.0317
vn -0.9565 0.2901 0.0317
vn -0.8815 0.4712 0.0317
vn -0.7726 0.6341 0.0317
vn -0.6341 0.7726 0.0317
vn -0.4712 0.8815 0.0317
vn -0.2901 0.9565 0.0317
vn -0.0980 0.9947 0.0317
vn 0.0000 0.0000 -1.0000
vn -0.8267 0.0813 -0.5567
vn 0.0000 -0.9906 -0.1367
vn 0.8267 0.0813 -0.5567
vn 0.0000 0.8230 -0.5680
vn -1.0000 -0.0000 0.0000
vn 1.0000 0.0000 0.0000
vn 0.0000 -0.9831 -0.1828
vn 0.0000 0.9919 -0.1273
vn 0.0000 -0.9698 0.2439
vn 0.0000 -0.3160 -0.9488
vn 0.0000 0.9224 -0.3863
vn -0.9987 -0.0159 -0.0477
vn 0.9987 -0.0159 -0.0477
s off
f 1/1/1 5/2/1 7/3/1 3/4/1
f 4/5/2 3/6/2 7/7/2 8/8/2
f 8/8/3 7/7/3 5/9/3 6/10/3
f 6/10/4 2/11/4 4/12/4 8/13/4
f 2/14/5 1/15/5 3/16/5 4/17/5
f 2/14/5 73/18/5 1/1/5
f 9/19/6 10/20/6 12/21/6 11/22/6
f 11/22/7 12/21/7 14/23/7 13/24/7
f 13/24/8 14/23/8 16/25/8 15/26/8
f 15/26/9 16/25/9 18/27/9 17/28/9
f 17/28/10 18/27/10 20/29/10 19/30/10
f 19/30/11 20/29/11 22/31/11 21/32/11
f 21/32/12 22/31/12 24/33/12 23/34/12
f 23/34/13 24/33/13 26/35/13 25/36/13
f 25/36/14 26/35/14 28/37/14 27/38/14
f 27/38/15 28/37/15 30/39/15 29/40/15
f 29/40/16 30/39/16 32/41/16 31/42/16
f 31/42/17 32/41/17 34/43/17 33/44/17
f 33/44/18 34/43/18 36/45/18 35/46/18
f 35/46/19 36/45/19 38/47/19 37/48/19
f 37/48/20 38/47/20 40/49/20 39/50/20
f 39/50/21 40/49/21 42/51/21 41/52/21
f 41/52/22 42/51/22 44/53/22 43/54/22
f 43/54/23 44/53/23 46/55/23 45/56/23
f 45/56/24 46/55/24 48/57/24 47/58/24
f 47/58/25 48/57/25 50/59/25 49/60/25
f 49/60/26 50/59/26 52/61/26 51/62/26
f 51/62/27 52/61/27 54/63/27 53/64/27
f 53/64/28 54/63/28 56/65/28 55/66/28
f 55/66/29 56/65/29 58/67/29 57/68/29
f 57/68/30 58/67/30 60/69/30 59/70/30
f 59/70/31 60/69/31 62/71/31 61/72/31
f 61/72/32 62/71/32 64/73/32 63/74/32
f 63/74/33 64/73/33 66/75/33 65/76/33
f 65/76/34 66/75/34 68/77/34 67/78/34
f 67/78/35 68/77/35 70/79/35 69/80/35
f 12/81/2 10/82/2 72/83/2 70/84/2 68/85/2 66/86/2 64/87/2 62/88/2 60/89/2 58/90/2 56/91/2 54/92/2 52/93/2 50/94/2 48/95/2 46/96/2 44/97/2 42/98/2 40/99/2 38/100/2 36/101/2 34/102/2 32/103/2 30/104/2 28/105/2 26/106/2 24/107/2 22/108/2 20/109/2 18/110/2 16/111/2 14/112/2
f 69/80/36 70/79/36 72/113/36 71/114/36
f 71/114/37 72/113/37 10/115/37 9/116/37
f 9/117/38 11/118/38 13/119/38 15/120/38 17/121/38 19/122/38 21/123/38 23/124/38 25/125/38 27/126/38 29/127/38 31/128/38 33/129/38 35/130/38 37/131/38 39/132/38 41/133/38 43/134/38 45/135/38 47/136/38 49/137/38 51/138/38 53/139/38 55/140/38 57/141/38 59/142/38 61/143/38 63/144/38 65/145/38 67/146/38 69/147/38 71/148/38
f 6/10/39 74/149/39 77/150/39 76/151/39
f 5/2/1 1/1/1 73/18/1 74/149/1
f 6/10/3 5/2/3 74/149/3
f 2/11/40 6/10/40 76/151/40 75/152/40
f 73/18/41 2/14/41 75/153/41 78/154/41
f 74/149/42 73/18/42 78/154/42 77/150/42
f 76/151/43 77/150/43 80/155/43 81/156/43
f 78/154/44 75/153/44 82/157/44 79/158/44
f 75/152/45 76/151/45 81/156/45 82/159/45
f 77/150/46 78/154/46 79/158/46 80/155/46
f 82/159/47 81/156/47 86/160/47 83/161/47
f 84/162/48 83/161/48 86/160/48 85/163/48
f 80/155/49 79/158/49 84/162/49 85/163/49
f 81/156/50 80/155/50 85/163/50 86/160/50
f 79/158/51 82/157/51 83/164/51 84/162/51
