# Blender v2.79 (sub 6) OBJ File: 'slope.blend'
# www.blender.org
o Cube
v 5.999998 -5.699999 -5.400000
v -5.999999 -5.699999 -5.400001
v -5.999997 -5.699998 -6.000001
v 6.000001 -5.699998 -5.999999
v 5.999992 5.699997 5.700001
v -6.000000 5.699999 5.700000
v -5.999993 6.299999 5.700001
v 5.999998 6.299999 5.700002
v 5.999992 5.699997 6.000001
v -6.000000 5.699999 6.000000
v 5.999998 6.299999 6.000002
v -5.999993 6.299999 6.000001
vt 0.458487 0.934180
vt 0.916973 0.934180
vt 0.916973 0.999993
vt 0.458486 0.999993
vt 0.458487 0.062185
vt 0.916973 0.062185
vt 0.918975 0.934413
vt 0.916973 0.062424
vt 0.958486 0.000000
vt 0.958486 1.000000
vt 0.000000 1.000000
vt 0.000000 0.000000
vt 0.458486 0.000000
vt 0.958486 0.937576
vt 0.960489 0.065587
vt 1.000000 0.000000
vt 1.000000 1.000000
vt 0.000000 0.000000
vt 0.458486 0.000000
vt 0.458487 0.062185
vt 0.916973 0.000000
vt 0.916973 0.062185
vt 1.000000 1.000000
vt 0.958486 0.937576
vt 0.916973 0.062424
vt 0.958486 0.000000
vn -0.0000 -1.0000 -0.0000
vn -0.0000 -0.6976 0.7165
vn -1.0000 0.0000 -0.0000
vn 0.0000 0.6981 -0.7160
vn 1.0000 -0.0000 0.0000
vn 0.0000 1.0000 0.0000
vn -0.0000 -0.0000 1.0000
usemtl Material
s off
f 1/1/1 2/2/1 3/3/1 4/4/1
f 1/1/2 5/5/2 6/6/2 2/2/2
f 2/7/3 6/8/3 7/9/3 3/10/3
f 3/11/4 7/12/4 8/13/4 4/4/4
f 5/14/5 1/15/5 4/16/5 8/17/5
f 8/13/6 7/12/6 12/18/6 11/19/6
f 9/20/7 11/19/7 12/21/7 10/22/7
f 5/14/5 8/17/5 11/23/5 9/24/5
f 7/9/3 6/8/3 10/25/3 12/26/3
f 6/6/1 5/5/1 9/20/1 10/22/1
