# Blender v2.79 (sub 6) OBJ File: 'wall.blend'
# www.blender.org
mtllib WALL.mtl
o Cube
v -5.999999 -6.000000 -0.300000
v 5.999997 -6.000000 -0.300000
v 6.000000 -6.000000 0.300000
v -5.999999 -6.000000 0.300000
v -5.999997 6.000000 -0.300000
v 6.000001 6.000000 -0.300000
v 5.999996 6.000000 0.300000
v -5.999997 6.000000 0.300000
vt 0.933333 0.500000
vt 0.933333 0.000000
vt 1.000000 0.000000
vt 1.000000 0.500000
vt 0.066667 1.000000
vt 0.000000 1.000000
vt 0.000000 0.500000
vt 0.066667 0.500000
vt 0.466667 0.500000
vt 0.000000 0.500000
vt 0.000000 0.000000
vt 0.466667 0.000000
vt 0.200000 0.500000
vt 0.200000 0.937500
vt 0.133333 0.937500
vt 0.133333 0.500000
vt 0.933333 0.500000
vt 0.466667 0.500000
vt 0.466667 0.000000
vt 0.933333 0.000000
vt 0.066667 0.937500
vt 0.066667 0.500000
vt 0.133333 0.500000
vt 0.133333 0.937500
vn 0.0000 -1.0000 0.0000
vn 0.0000 1.0000 -0.0000
vn -0.0000 0.0000 -1.0000
vn 1.0000 -0.0000 0.0000
vn 0.0000 -0.0000 1.0000
vn -1.0000 0.0000 0.0000
usemtl Material
s off
f 1/1/1 2/2/1 3/3/1 4/4/1
f 5/5/2 8/6/2 7/7/2 6/8/2
f 1/9/3 5/10/3 6/11/3 2/12/3
f 2/13/4 6/14/4 7/15/4 3/16/4
f 3/17/5 7/18/5 8/19/5 4/20/5
f 5/21/6 1/22/6 4/23/6 8/24/6
