# Blender v2.80 (sub 75) OBJ File: 'PipeEnd.blend'
# www.blender.org
o Cube.001
v 1.500000 -1.500000 1.750000
v -1.499999 -1.500000 1.750000
v 1.499999 1.500000 1.750004
v -1.500000 1.500000 1.749995
v 1.050748 -1.050748 0.750001
v -1.050747 -1.050748 0.750001
v 1.050747 1.050748 0.750005
v -1.050748 1.050748 0.749993
v 1.050747 1.050748 -1.749996
v -1.050748 1.050748 -1.750006
v -1.050747 -1.050748 -1.750000
v 1.050748 -1.050748 -1.749999
vt 0.484373 0.685549
vt 0.990887 0.179034
vt 0.990888 0.685549
vt 0.017963 0.984945
vt 0.605196 0.742143
vt 0.708623 0.984945
vt 0.017933 0.984940
vt 0.605165 0.742137
vt 0.708592 0.984940
vt 0.121387 0.742144
vt 0.708619 0.984946
vt 0.017960 0.984946
vt 0.017959 0.984946
vt 0.605192 0.742143
vt 0.708619 0.984946
vt 0.470644 0.697356
vt 0.009842 0.154987
vt 0.470646 0.154986
vt 0.470617 0.154980
vt 0.009814 0.697350
vt 0.009813 0.154979
vt 0.470646 0.154986
vt 0.009843 0.697356
vt 0.009842 0.154986
vt 0.470644 0.154986
vt 0.009840 0.697356
vt 0.009840 0.154986
vt 0.189447 1.145614
vt 0.072698 1.262364
vt 0.072698 1.145614
vt 0.484373 0.179035
vt 0.121390 0.742143
vt 0.121359 0.742136
vt 0.605193 0.742143
vt 0.121386 0.742143
vt 0.009841 0.697357
vt 0.470618 0.697351
vt 0.470647 0.697356
vt 0.470644 0.697356
vt 0.189448 1.262364
vn 0.0000 -0.0000 1.0000
vn 0.9122 0.0000 -0.4098
vn -0.9122 -0.0000 -0.4098
vn 0.0000 0.9122 -0.4098
vn -0.0000 -0.9122 -0.4098
vn 0.0000 1.0000 0.0000
vn -1.0000 -0.0000 0.0000
vn 1.0000 0.0000 0.0000
vn 0.0000 -1.0000 0.0000
vn 0.0000 0.0000 -1.0000
s off
f 3/1/1 2/2/1 1/3/1
f 1/4/2 7/5/2 3/6/2
f 4/7/3 6/8/3 2/9/3
f 7/10/4 4/11/4 3/12/4
f 2/13/5 5/14/5 1/15/5
f 8/16/6 9/17/6 10/18/6
f 11/19/7 8/20/7 10/21/7
f 9/22/8 5/23/8 12/24/8
f 12/25/9 6/26/9 11/27/9
f 11/28/10 9/29/10 12/30/10
f 3/1/1 4/31/1 2/2/1
f 1/4/2 5/32/2 7/5/2
f 4/7/3 8/33/3 6/8/3
f 7/10/4 8/34/4 4/11/4
f 2/13/5 6/35/5 5/14/5
f 8/16/6 7/36/6 9/17/6
f 11/19/7 6/37/7 8/20/7
f 9/22/8 7/38/8 5/23/8
f 12/25/9 5/39/9 6/26/9
f 11/28/10 10/40/10 9/29/10
